<svg width="50" height="50" fill="none" xmlns="http://www.w3.org/2000/svg"><path d="M25 26.475l-10.93 10.93a1.051 1.051 0 01-.716.312c-.283.014-.536-.09-.758-.313-.222-.222-.334-.468-.334-.737 0-.27.112-.516.334-.738L23.525 25l-10.93-10.93a1.051 1.051 0 01-.312-.716c-.013-.283.09-.536.313-.758.222-.222.468-.334.737-.334.27 0 .516.112.738.334L25 23.525l10.93-10.93a1.05 1.05 0 01.716-.312c.283-.013.536.09.758.313.222.222.333.468.333.737 0 .27-.11.516-.333.738L26.475 25l10.93 10.93c.194.194.298.432.312.716.014.283-.09.536-.313.758-.222.222-.468.333-.737.333-.27 0-.516-.11-.738-.333L25 26.475z" fill="#fff"/></svg>