<svg width="48" height="48" viewBox="0 0 48 48" fill="none" xmlns="http://www.w3.org/2000/svg">
<path fill-rule="evenodd" clip-rule="evenodd" d="M24.0543 3C12.4854 3 3.10889 12.3765 3.10889 23.9454C3.10889 33.198 9.10859 41.0499 17.433 43.8219C18.4809 44.0109 18.8589 43.3662 18.8589 42.8118C18.8589 42.3141 18.8421 40.9953 18.8358 39.2502C13.0083 40.5144 11.7777 36.4404 11.7777 36.4404C10.8285 34.0212 9.45299 33.3765 9.45299 33.3765C7.55249 32.0766 9.59789 32.106 9.59789 32.106C11.7021 32.253 12.8046 34.2648 12.8046 34.2648C14.6736 37.4652 17.7102 36.5412 18.8988 36.0057C19.0899 34.6512 19.6359 33.7272 20.2323 33.2043C15.5829 32.6772 10.6941 30.8796 10.6941 22.8513C10.6941 20.5686 11.511 18.6954 12.8445 17.2338C12.6324 16.7025 11.9079 14.571 13.0524 11.6898C13.0524 11.6898 14.8101 11.1249 18.8106 13.8339C20.5191 13.3691 22.2816 13.1319 24.0522 13.1283C25.8229 13.1312 27.5854 13.3684 29.2938 13.8339C33.2964 11.1228 35.052 11.6898 35.052 11.6898C36.1965 14.571 35.4783 16.7025 35.2599 17.2338C36.6039 18.6954 37.4103 20.5665 37.4103 22.8513C37.4103 30.9006 32.5173 32.6688 27.8511 33.1875C28.5966 33.8343 29.2686 35.1111 29.2686 37.0641C29.2686 39.8655 29.2434 42.1251 29.2434 42.8118C29.2434 43.3725 29.6172 44.0235 30.6861 43.8177C39.0063 41.0415 44.9997 33.1959 44.9997 23.9454C44.9997 12.3765 35.6232 3 24.0543 3Z" fill="white"/>
</svg>
