<svg width="44" height="44" viewBox="0 0 44 44" fill="none" xmlns="http://www.w3.org/2000/svg">
<path fill-rule="evenodd" clip-rule="evenodd" d="M22.0571 0C9.93726 0 0.114258 9.823 0.114258 21.9428C0.114258 31.636 6.39966 39.8618 15.1205 42.7658C16.2183 42.9638 16.6143 42.2884 16.6143 41.7076C16.6143 41.1862 16.5967 39.8046 16.5901 37.9764C10.4851 39.3008 9.19586 35.0328 9.19586 35.0328C8.20146 32.4984 6.76046 31.823 6.76046 31.823C4.76946 30.4612 6.91226 30.492 6.91226 30.492C9.11666 30.646 10.2717 32.7536 10.2717 32.7536C12.2297 36.1064 15.4109 35.1384 16.6561 34.5774C16.8563 33.1584 17.4283 32.1904 18.0531 31.6426C13.1823 31.0904 8.06066 29.2072 8.06066 20.7966C8.06066 18.4052 8.91646 16.4428 10.3135 14.9116C10.0913 14.355 9.33226 12.122 10.5313 9.1036C10.5313 9.1036 12.3727 8.5118 16.5637 11.3498C18.3536 10.8629 20.1999 10.6143 22.0549 10.6106C23.9099 10.6136 25.7563 10.8622 27.5461 11.3498C31.7393 8.5096 33.5785 9.1036 33.5785 9.1036C34.7775 12.122 34.0251 14.355 33.7963 14.9116C35.2043 16.4428 36.0491 18.403 36.0491 20.7966C36.0491 29.2292 30.9231 31.0816 26.0347 31.625C26.8157 32.3026 27.5197 33.6402 27.5197 35.6862C27.5197 38.621 27.4933 40.9882 27.4933 41.7076C27.4933 42.295 27.8849 42.977 29.0047 42.7614C37.7211 39.853 43.9999 31.6338 43.9999 21.9428C43.9999 9.823 34.1769 0 22.0571 0Z" fill="white"/>
</svg>
