<svg width="44" height="44" viewBox="0 0 44 44" fill="none" xmlns="http://www.w3.org/2000/svg">
<g clip-path="url(#clip0_2005_1582)">
<path d="M32.4762 1.04761H11.5238C5.73796 1.04761 1.04761 5.73796 1.04761 11.5238V32.4762C1.04761 38.262 5.73796 42.9524 11.5238 42.9524H32.4762C38.262 42.9524 42.9524 38.262 42.9524 32.4762V11.5238C42.9524 5.73796 38.262 1.04761 32.4762 1.04761Z" stroke="white" stroke-width="2" stroke-linecap="round" stroke-linejoin="round"/>
<path d="M30.381 20.6799C30.6396 22.4237 30.3417 24.2046 29.5298 25.7693C28.7179 27.334 27.4333 28.6029 25.8587 29.3954C24.2841 30.188 22.4996 30.4639 20.7592 30.1838C19.0188 29.9037 17.411 29.082 16.1645 27.8355C14.9179 26.589 14.0962 24.9812 13.8162 23.2408C13.5361 21.5003 13.812 19.7159 14.6045 18.1413C15.3971 16.5667 16.6659 15.2821 18.2307 14.4702C19.7954 13.6583 21.5763 13.3604 23.32 13.619C25.0987 13.8827 26.7454 14.7116 28.0169 15.9831C29.2884 17.2545 30.1172 18.9012 30.381 20.6799Z" stroke="white" stroke-width="2" stroke-linecap="round" stroke-linejoin="round"/>
<path d="M33.5238 10.4762H33.5433" stroke="white" stroke-width="2" stroke-linecap="round" stroke-linejoin="round"/>
</g>
<defs>
<clipPath id="clip0_2005_1582">
<rect width="44" height="44" fill="white"/>
</clipPath>
</defs>
</svg>
