<svg width="108" height="52" viewBox="0 0 108 52" fill="none" xmlns="http://www.w3.org/2000/svg">
<path d="M2.59539 19.8641C6.6541 16.4668 10.6954 13.0695 14.7541 9.67213C14.9457 9.4988 15.3289 9.44679 15.5902 9.48146C16.7051 9.60279 17.8199 9.75879 18.9348 9.91479C19.3877 9.96679 19.6489 10.1228 19.6315 10.6601C19.6315 12.5841 19.6664 12.6881 17.7328 13.0175C15.8167 13.3468 14.5799 14.6641 13.2212 15.8081C12.9599 16.0335 13.0296 16.9175 13.2212 17.3335C13.5347 17.9575 14.0922 18.4775 14.5799 18.9975C14.7367 19.1535 14.998 19.2401 15.2418 19.2921C15.5728 19.3788 15.9038 19.4135 16.2347 19.4828C17.5586 19.7601 17.5412 19.7601 18.2554 18.6855C18.3773 18.5121 18.5515 18.3561 18.7257 18.2175C22.8018 14.8895 27.1741 11.9948 31.8251 9.55079C33.6715 8.58012 35.6922 7.95612 37.5735 7.05479C39.507 6.13612 41.5625 5.92812 43.6354 5.68546C47.5025 5.23479 51.387 5.02679 55.289 5.02679C59.3825 5.02679 63.3889 5.56412 67.378 6.43079C71.1928 7.26279 74.8683 8.52813 78.4393 10.0361C81.5922 11.3535 84.5709 13.0348 87.6367 14.5601C90.0928 15.7908 92.5489 17.0215 95.0225 18.2175C95.3883 18.3908 95.8238 18.4948 96.2418 18.4948C97.3915 18.5295 98.5412 18.4948 99.6909 18.5121C100.092 18.5121 100.266 18.3735 100.422 18.0095C100.823 17.0561 100.51 16.1721 100.213 15.1668C98.7851 15.3575 97.3567 15.5308 95.8064 15.7388C95.876 15.4441 95.876 15.1668 95.9806 14.9588C96.4683 13.9708 96.4335 12.9308 96.3812 11.8735C96.3812 11.6655 96.5728 11.3188 96.747 11.2321C98.0883 10.6775 99.447 10.1748 100.91 9.62012C100.928 9.65479 101.067 9.84546 101.172 10.0535C101.624 10.9548 102.112 11.8388 102.495 12.7748C103.314 14.8028 104.917 16.2588 106.241 17.9401C106.781 18.6335 106.45 20.2455 105.596 20.5575C102.408 21.7015 99.5864 23.5041 96.6425 25.1161C96.1025 25.4108 95.667 25.9135 95.2315 26.3641C93.5593 28.0975 91.9044 29.8308 90.2322 31.5641C90.0928 31.7028 89.936 31.8415 89.7967 31.9628C89.0825 31.1308 89.0128 30.9401 89.518 30.1255C90.4935 28.5481 91.2773 26.9015 91.556 25.0468C91.6431 24.5268 91.556 24.2321 91.0857 23.9028C86.1734 20.5228 80.9302 17.7321 75.4954 15.3055C73.5096 14.4215 71.3844 13.8841 69.3115 13.1908C67.6218 12.6361 65.967 11.9775 64.2425 11.5615C62.6399 11.1801 60.9677 10.9895 59.3128 10.8508C56.3515 10.6081 53.3728 10.3828 50.4115 10.3308C48.0425 10.2961 45.6734 10.4001 43.3218 10.6948C42.0154 10.8508 40.7612 11.5095 39.4896 11.9601C34.2464 13.7628 29.4735 16.4148 25.0141 19.6561C24.2477 20.2108 23.6206 20.9215 22.9412 21.5801C21.0947 23.4001 19.2657 25.2201 17.4367 27.0575C16.4786 28.0281 16.0954 29.2761 15.9038 30.5588C15.747 31.6161 15.6947 32.6908 15.6076 33.7655C15.538 33.8001 15.4857 33.8521 15.416 33.8868C15.1199 33.5055 14.7541 33.1761 14.5451 32.7428C14.0747 31.7375 13.6044 30.6975 13.256 29.6401C12.5941 27.6121 11.0438 26.1735 9.87668 24.4921C9.78958 24.3708 9.65023 24.2841 9.51088 24.2148C7.17668 23.1575 4.84249 22.1175 2.5083 21.0601C2.5083 20.6615 2.5083 20.2455 2.5083 19.8468L2.59539 19.8641Z" fill="white"/>
<path d="M82.4806 21.7361C82.3238 21.7361 82.1496 21.7708 81.9754 21.7361C80.9129 21.5281 80.2509 22.0308 79.6238 22.8628C78.2477 24.7001 76.8541 26.5201 75.3038 28.2015C73.9451 29.6748 72.3426 30.8881 70.9142 32.2921C68.0051 35.1521 64.4516 37.0761 61.0374 39.1908C60.0445 39.7975 58.7554 39.9535 57.5883 40.3001C56.3167 40.6815 56.3342 40.6815 56.1774 41.9641C55.829 44.6335 55.4632 47.2855 55.0974 49.9548C54.9755 50.8388 54.2961 50.2668 53.7909 50.4748C53.5645 47.3895 53.338 44.3735 53.0941 41.3228C51.9967 41.2188 50.9516 41.0801 49.9064 41.0281C47.067 40.9068 44.2277 40.6641 41.58 39.5895C39.9948 38.9481 38.4619 38.0641 37.0509 37.0761C34.8909 35.5508 32.7832 33.9041 30.78 32.1708C29.6129 31.1481 28.6548 29.8655 27.6445 28.6695C26.7561 27.5948 25.9896 26.4161 25.049 25.3935C24.2477 24.5268 24.1606 23.6081 24.3348 22.4468C25.6587 22.7935 26.3903 21.8228 27.209 21.0775C29.0554 19.4135 31.2154 18.2695 33.4103 17.1775C37.1903 15.2881 41.04 13.5028 45.238 12.7575C46.98 12.4455 48.7741 12.3588 50.5335 12.2375C53.4251 12.0295 56.2819 12.4975 59.1561 12.7401C61.2638 12.9135 63.3716 13.1041 65.4793 13.2428C66.0716 13.2775 66.2458 13.5201 66.2109 14.0748C66.1587 14.6295 66.1761 15.2015 66.2109 15.7561C66.2632 16.3281 66.0716 16.5361 65.4619 16.5361C63.5632 16.5015 61.6819 16.5361 59.7832 16.5361C58.8251 16.5361 57.7103 17.4895 57.6232 18.4255C57.449 20.3495 57.3096 22.2735 57.1529 24.1975C56.9787 26.1561 56.7871 28.1321 56.6477 30.0908C56.6129 30.5935 56.4038 30.8881 55.9509 31.0441C55.8638 31.0788 55.7941 31.1135 55.7071 31.1655C55.3064 31.3735 54.7316 31.5468 54.8883 32.0668C54.9754 32.3441 55.5154 32.5695 55.8987 32.6388C56.4038 32.7428 56.5258 32.9681 56.4387 33.4361C56.3864 33.6441 56.4038 33.8695 56.3864 34.1988C57.7974 33.9041 59.1387 33.6615 60.4626 33.3148C61.2813 33.1068 62.0651 32.7775 62.849 32.4481C66.1064 31.0268 68.8761 28.8948 71.5761 26.6241C72.0987 26.1908 72.4993 25.5841 72.9348 25.0468C73.4922 24.3535 73.9974 23.5735 74.6071 22.9321C75.3909 22.1001 75.7045 21.0948 75.8438 20.0201C75.9135 19.5348 75.7219 18.9975 75.5825 18.5121C75.4606 18.0615 75.5477 17.9228 76.0354 17.8881C77.2722 17.8188 78.4393 17.9401 79.4845 18.7028C80.1813 19.2055 80.9303 19.6215 81.7142 19.9681C82.4806 20.3321 82.8464 20.8001 82.5503 21.7708L82.4806 21.7361ZM52.4671 15.9121C52.2058 15.8948 52.0316 15.8601 51.8574 15.8601C50.0806 15.8601 48.3038 15.8428 46.5096 15.8601C46.0916 15.8601 45.6561 15.9641 45.2554 16.0855C43.0258 16.7441 40.9703 17.8015 38.8974 18.8415C37.6258 19.4655 36.9987 20.6441 36.1277 21.6321C36.0929 21.6841 36.0406 21.7708 36.058 21.8055C36.3542 22.8281 36.2671 23.9721 37.0683 24.8041C38.34 26.1041 39.6638 27.3521 40.918 28.6695C41.9284 29.7268 43.0084 30.6108 44.3497 31.2348C45.8129 31.9108 47.1193 32.8988 48.7567 33.2108C50.1851 33.4708 51.5787 33.8521 53.1116 34.1988C52.8851 28.0455 52.6761 22.0135 52.4496 15.9468L52.4671 15.9121Z" fill="white"/>
</svg>
