<svg width="44" height="44" viewBox="0 0 44 44" fill="none" xmlns="http://www.w3.org/2000/svg">
<g clip-path="url(#clip0_1994_1367)">
<path fill-rule="evenodd" clip-rule="evenodd" d="M22 0C9.9 0 0 9.9 0 22C0 34.1 9.9 44 22 44C34.1 44 44 34.1 44 22C44 9.9 34.21 0 22 0ZM32.12 31.79C31.68 32.45 30.91 32.67 30.25 32.23C25.08 29.04 18.59 28.38 10.89 30.14C10.12 30.36 9.46 29.81 9.24 29.15C9.02 28.38 9.57 27.72 10.23 27.5C18.59 25.63 25.85 26.4 31.57 29.92C32.34 30.25 32.45 31.13 32.12 31.79ZM34.76 25.74C34.21 26.51 33.22 26.84 32.45 26.29C26.51 22.66 17.49 21.56 10.56 23.76C9.68 23.98 8.69 23.54 8.47 22.66C8.25 21.78 8.69 20.79 9.57 20.57C17.6 18.15 27.5 19.36 34.32 23.54C34.98 23.87 35.31 24.97 34.76 25.74ZM34.98 19.58C27.94 15.4 16.17 14.96 9.46 17.05C8.36 17.38 7.26 16.72 6.93 15.73C6.6 14.63 7.26 13.53 8.25 13.2C16.06 10.89 28.93 11.33 37.07 16.17C38.06 16.72 38.39 18.04 37.84 19.03C37.29 19.8 35.97 20.13 34.98 19.58Z" fill="white"/>
</g>
<defs>
<clipPath id="clip0_1994_1367">
<rect width="44" height="44" fill="white"/>
</clipPath>
</defs>
</svg>
